<?xml version="1.0" encoding="UTF-8"?>
<svg id="Layer_1" data-name="Layer 1" xmlns="http://www.w3.org/2000/svg" version="1.1" viewBox="0 0 440 366">
  <defs>
    <style>
      .cls-1 {
        fill: none;
        stroke: #000;
        stroke-linecap: round;
        stroke-linejoin: round;
        stroke-width: 9px;
      }
    </style>
  </defs>
  <path class="cls-1" d="M220.1,163.95c-25.63,14.87-51.22,29.8-76.88,44.61-29.34,16.93-58.82,33.63-88.09,50.68-19.49,11.35-20.29,34.61-6.35,47.52,5.36,4.97,11.84,7.61,19.45,7.61,101.62-.07,203.25-.03,304.87-.07,13.76,0,25.88-11.43,27.4-25.1,1.52-13.62-4.36-23.3-15.78-29.98-16.58-9.7-33.24-19.27-49.86-28.89-18.37-10.63-36.76-21.24-55.12-31.88-16.14-9.35-32.25-18.74-48.38-28.12-3-1.75-6.05-3.42-8.97-5.29-.93-.59-2.19-1.72-2.17-2.58.15-7.02-.81-14.06,1.32-21.02,2.73-8.92,8.13-15.3,16.16-19.91,9.13-5.24,15.89-12.9,18.3-23.22,6-25.69-12.86-46.19-35.14-46.66-16.91-.36-32.34,11.4-36.65,27.59-1.05,3.94-.85,8.22-1.23,12.35"/>
</svg>