<?xml version="1.0" encoding="UTF-8"?>
<svg id="Layer_1_copy" data-name="Layer 1 copy" xmlns="http://www.w3.org/2000/svg" xmlns:xlink="http://www.w3.org/1999/xlink" version="1.1" viewBox="0 0 960 560">
  <defs>
    <style>
      .cls-1 {
        clip-path: url(#clippath);
      }

      .cls-2 {
        fill: none;
        stroke-width: 0px;
      }

      .cls-3 {
        fill: #000;
        stroke: #fff;
        stroke-miterlimit: 10;
        stroke-width: 20px;
      }
    </style>
    <clipPath id="clippath">
      <rect class="cls-2" x="-179.65" y="-53.78" width="1310.01" height="650"/>
    </clipPath>
  </defs>
  <g class="cls-1">
    <g>
      <g>
        <path class="cls-3" d="M-169.65-193.78c0,13.81-5.6,26.31-14.64,35.36s-21.55,14.64-35.36,14.64-26.31,5.6-35.35,14.65-14.65,21.55-14.65,35.35-5.6,26.31-14.64,35.36-21.55,14.64-35.36,14.64-26.31-5.6-35.35-14.64-14.65-21.55-14.65-35.36,5.6-26.3,14.65-35.35,21.55-14.65,35.35-14.65,26.31-5.6,35.36-14.64,14.64-21.55,14.64-35.36,5.6-26.3,14.65-35.35,21.55-14.65,35.35-14.65,26.31,5.6,35.36,14.65,14.64,21.55,14.64,35.35Z"/>
        <path class="cls-3" d="M-119.65,56.22c-13.81,0-26.31-5.6-35.36-14.64s-14.64-21.55-14.64-35.36-5.6-26.31-14.65-35.35-21.55-14.65-35.35-14.65-26.31-5.6-35.36-14.64-14.64-21.55-14.64-35.36,5.6-26.31,14.64-35.35,21.55-14.65,35.36-14.65,26.3,5.6,35.35,14.65,14.65,21.55,14.65,35.35,5.6,26.31,14.64,35.36,21.55,14.64,35.36,14.64,26.3,5.6,35.35,14.65,14.65,21.55,14.65,35.35-5.6,26.31-14.65,35.36-21.55,14.64-35.35,14.64Z"/>
      </g>
      <g>
        <path class="cls-3" d="M30.35-193.78c0,13.81-5.6,26.31-14.64,35.36s-21.55,14.64-35.36,14.64-26.31,5.6-35.35,14.65-14.65,21.55-14.65,35.35-5.6,26.31-14.64,35.36-21.55,14.64-35.36,14.64-26.31-5.6-35.35-14.64-14.65-21.55-14.65-35.36,5.6-26.3,14.65-35.35,21.55-14.65,35.35-14.65,26.31-5.6,35.36-14.64,14.64-21.55,14.64-35.36,5.6-26.3,14.65-35.35,21.55-14.65,35.35-14.65,26.31,5.6,35.36,14.65,14.64,21.55,14.64,35.35Z"/>
        <path class="cls-3" d="M80.35,56.22c-13.81,0-26.31-5.6-35.36-14.64S30.35,20.03,30.35,6.22s-5.6-26.31-14.65-35.35-21.55-14.65-35.35-14.65-26.31-5.6-35.36-14.64-14.64-21.55-14.64-35.36,5.6-26.31,14.64-35.35,21.55-14.65,35.36-14.65,26.3,5.6,35.35,14.65,14.65,21.55,14.65,35.35,5.6,26.31,14.64,35.36,21.55,14.64,35.36,14.64,26.3,5.6,35.35,14.65,14.65,21.55,14.65,35.35-5.6,26.31-14.65,35.36-21.55,14.64-35.35,14.64Z"/>
      </g>
      <g>
        <path class="cls-3" d="M230.35-193.78c0,13.81-5.6,26.31-14.64,35.36s-21.55,14.64-35.36,14.64-26.31,5.6-35.35,14.65-14.65,21.55-14.65,35.35-5.6,26.31-14.64,35.36-21.55,14.64-35.36,14.64-26.31-5.6-35.35-14.64-14.65-21.55-14.65-35.36,5.6-26.3,14.65-35.35,21.55-14.65,35.35-14.65,26.31-5.6,35.36-14.64,14.64-21.55,14.64-35.36,5.6-26.3,14.65-35.35,21.55-14.65,35.35-14.65,26.31,5.6,35.36,14.65,14.64,21.55,14.64,35.35Z"/>
        <path class="cls-3" d="M280.36,56.22c-13.81,0-26.31-5.6-35.36-14.64s-14.64-21.55-14.64-35.36-5.6-26.31-14.65-35.35-21.55-14.65-35.35-14.65-26.31-5.6-35.36-14.64-14.64-21.55-14.64-35.36,5.6-26.31,14.64-35.35,21.55-14.65,35.36-14.65,26.3,5.6,35.35,14.65,14.65,21.55,14.65,35.35,5.6,26.31,14.64,35.36,21.55,14.64,35.36,14.64,26.3,5.6,35.35,14.65,14.65,21.55,14.65,35.35-5.6,26.31-14.65,35.36-21.55,14.64-35.35,14.64Z"/>
      </g>
      <g>
        <path class="cls-3" d="M430.36-193.78c0,13.81-5.6,26.31-14.64,35.36s-21.55,14.64-35.36,14.64-26.31,5.6-35.35,14.65-14.65,21.55-14.65,35.35-5.6,26.31-14.64,35.36-21.55,14.64-35.36,14.64-26.31-5.6-35.35-14.64-14.65-21.55-14.65-35.36,5.6-26.3,14.65-35.35,21.55-14.65,35.35-14.65,26.31-5.6,35.36-14.64,14.64-21.55,14.64-35.36,5.6-26.3,14.65-35.35,21.55-14.65,35.35-14.65,26.31,5.6,35.36,14.65,14.64,21.55,14.64,35.35Z"/>
        <path class="cls-3" d="M480.36,56.22c-13.81,0-26.31-5.6-35.36-14.64s-14.64-21.55-14.64-35.36-5.6-26.31-14.65-35.35-21.55-14.65-35.35-14.65-26.31-5.6-35.36-14.64-14.64-21.55-14.64-35.36,5.6-26.31,14.64-35.35,21.55-14.65,35.36-14.65,26.3,5.6,35.35,14.65,14.65,21.55,14.65,35.35,5.6,26.31,14.64,35.36,21.55,14.64,35.36,14.64,26.3,5.6,35.35,14.65,14.65,21.55,14.65,35.35-5.6,26.31-14.65,35.36-21.55,14.64-35.35,14.64Z"/>
      </g>
      <g>
        <path class="cls-3" d="M630.36-193.78c0,13.81-5.6,26.31-14.64,35.36s-21.55,14.64-35.36,14.64-26.31,5.6-35.35,14.65-14.65,21.55-14.65,35.35-5.6,26.31-14.64,35.36-21.55,14.64-35.36,14.64-26.31-5.6-35.35-14.64-14.65-21.55-14.65-35.36,5.6-26.3,14.65-35.35,21.55-14.65,35.35-14.65,26.31-5.6,35.36-14.64,14.64-21.55,14.64-35.36,5.6-26.3,14.65-35.35,21.55-14.65,35.35-14.65,26.31,5.6,35.36,14.65,14.64,21.55,14.64,35.35Z"/>
        <path class="cls-3" d="M680.37,56.22c-13.81,0-26.31-5.6-35.36-14.64s-14.64-21.55-14.64-35.36-5.6-26.31-14.65-35.35-21.55-14.65-35.35-14.65-26.31-5.6-35.36-14.64-14.64-21.55-14.64-35.36,5.6-26.31,14.64-35.35,21.55-14.65,35.36-14.65,26.3,5.6,35.35,14.65,14.65,21.55,14.65,35.35,5.6,26.31,14.64,35.36,21.55,14.64,35.36,14.64,26.3,5.6,35.35,14.65,14.65,21.55,14.65,35.35-5.6,26.31-14.65,35.36-21.55,14.64-35.35,14.64Z"/>
      </g>
      <g>
        <path class="cls-3" d="M830.37-193.78c0,13.81-5.6,26.31-14.64,35.36s-21.55,14.64-35.36,14.64-26.31,5.6-35.35,14.65-14.65,21.55-14.65,35.35-5.6,26.31-14.64,35.36-21.55,14.64-35.36,14.64-26.31-5.6-35.35-14.64-14.65-21.55-14.65-35.36,5.6-26.3,14.65-35.35,21.55-14.65,35.35-14.65,26.31-5.6,35.36-14.64,14.64-21.55,14.64-35.36,5.6-26.3,14.65-35.35,21.55-14.65,35.35-14.65,26.31,5.6,35.36,14.65,14.64,21.55,14.64,35.35Z"/>
        <path class="cls-3" d="M880.37,56.22c-13.81,0-26.31-5.6-35.36-14.64s-14.64-21.55-14.64-35.36-5.6-26.31-14.65-35.35-21.55-14.65-35.35-14.65-26.31-5.6-35.36-14.64-14.64-21.55-14.64-35.36,5.6-26.31,14.64-35.35,21.55-14.65,35.36-14.65,26.3,5.6,35.35,14.65,14.65,21.55,14.65,35.35,5.6,26.31,14.64,35.36,21.55,14.64,35.36,14.64,26.3,5.6,35.35,14.65,14.65,21.55,14.65,35.35-5.6,26.31-14.65,35.36-21.55,14.64-35.35,14.64Z"/>
      </g>
      <g>
        <path class="cls-3" d="M1030.37-193.78c0,13.81-5.6,26.31-14.64,35.36s-21.55,14.64-35.36,14.64-26.31,5.6-35.35,14.65-14.65,21.55-14.65,35.35-5.6,26.31-14.64,35.36-21.55,14.64-35.36,14.64-26.31-5.6-35.35-14.64-14.65-21.55-14.65-35.36,5.6-26.3,14.65-35.35,21.55-14.65,35.35-14.65,26.31-5.6,35.36-14.64,14.64-21.55,14.64-35.36,5.6-26.3,14.65-35.35,21.55-14.65,35.35-14.65,26.31,5.6,35.36,14.65,14.64,21.55,14.64,35.35Z"/>
        <path class="cls-3" d="M1080.37,56.22c-13.81,0-26.31-5.6-35.36-14.64s-14.64-21.55-14.64-35.36-5.6-26.31-14.65-35.35-21.55-14.65-35.35-14.65-26.31-5.6-35.36-14.64-14.64-21.55-14.64-35.36,5.6-26.31,14.64-35.35,21.55-14.65,35.36-14.65,26.3,5.6,35.35,14.65,14.65,21.55,14.65,35.35,5.6,26.31,14.64,35.36,21.55,14.64,35.36,14.64,26.3,5.6,35.35,14.65,14.65,21.55,14.65,35.35-5.6,26.31-14.65,35.36-21.55,14.64-35.35,14.64Z"/>
      </g>
      <g>
        <path class="cls-3" d="M1230.37-193.78c0,13.81-5.6,26.31-14.64,35.36s-21.55,14.64-35.36,14.64-26.31,5.6-35.35,14.65-14.65,21.55-14.65,35.35-5.6,26.31-14.64,35.36-21.55,14.64-35.36,14.64-26.31-5.6-35.35-14.64-14.65-21.55-14.65-35.36,5.6-26.3,14.65-35.35,21.55-14.65,35.35-14.65,26.31-5.6,35.36-14.64,14.64-21.55,14.64-35.36,5.6-26.3,14.65-35.35,21.55-14.65,35.35-14.65,26.31,5.6,35.36,14.65,14.64,21.55,14.64,35.35Z"/>
        <path class="cls-3" d="M1280.38,56.22c-13.81,0-26.31-5.6-35.36-14.64s-14.64-21.55-14.64-35.36-5.6-26.31-14.65-35.35-21.55-14.65-35.35-14.65-26.31-5.6-35.36-14.64-14.64-21.55-14.64-35.36,5.6-26.31,14.64-35.35,21.55-14.65,35.36-14.65,26.3,5.6,35.35,14.65,14.65,21.55,14.65,35.35,5.6,26.31,14.64,35.36,21.55,14.64,35.36,14.64,26.3,5.6,35.35,14.65,14.65,21.55,14.65,35.35-5.6,26.31-14.65,35.36-21.55,14.64-35.35,14.64Z"/>
      </g>
      <g>
        <path class="cls-3" d="M-169.65,6.22c0,13.81-5.6,26.31-14.64,35.36s-21.55,14.64-35.36,14.64-26.31,5.6-35.35,14.65-14.65,21.55-14.65,35.35-5.6,26.31-14.64,35.36-21.55,14.64-35.36,14.64-26.31-5.6-35.35-14.64-14.65-21.55-14.65-35.36,5.6-26.3,14.65-35.35,21.55-14.65,35.35-14.65,26.31-5.6,35.36-14.64,14.64-21.55,14.64-35.36,5.6-26.3,14.65-35.35,21.55-14.65,35.35-14.65,26.31,5.6,35.36,14.65,14.64,21.55,14.64,35.35Z"/>
        <path class="cls-3" d="M-119.65,256.22c-13.81,0-26.31-5.6-35.36-14.64s-14.64-21.55-14.64-35.36-5.6-26.31-14.65-35.35-21.55-14.65-35.35-14.65-26.31-5.6-35.36-14.64-14.64-21.55-14.64-35.36,5.6-26.31,14.64-35.35,21.55-14.65,35.36-14.65,26.3,5.6,35.35,14.65,14.65,21.55,14.65,35.35,5.6,26.31,14.64,35.36,21.55,14.64,35.36,14.64,26.3,5.6,35.35,14.65,14.65,21.55,14.65,35.35-5.6,26.31-14.65,35.36-21.55,14.64-35.35,14.64Z"/>
      </g>
      <g>
        <path class="cls-3" d="M30.35,6.22c0,13.81-5.6,26.31-14.64,35.36s-21.55,14.64-35.36,14.64-26.31,5.6-35.35,14.65-14.65,21.55-14.65,35.35-5.6,26.31-14.64,35.36-21.55,14.64-35.36,14.64-26.31-5.6-35.35-14.64-14.65-21.55-14.65-35.36,5.6-26.3,14.65-35.35,21.55-14.65,35.35-14.65,26.31-5.6,35.36-14.64,14.64-21.55,14.64-35.36,5.6-26.3,14.65-35.35,21.55-14.65,35.35-14.65,26.31,5.6,35.36,14.65S30.35-7.58,30.35,6.22Z"/>
        <path class="cls-3" d="M80.35,256.22c-13.81,0-26.31-5.6-35.36-14.64s-14.64-21.55-14.64-35.36-5.6-26.31-14.65-35.35-21.55-14.65-35.35-14.65-26.31-5.6-35.36-14.64-14.64-21.55-14.64-35.36,5.6-26.31,14.64-35.35,21.55-14.65,35.36-14.65,26.3,5.6,35.35,14.65,14.65,21.55,14.65,35.35,5.6,26.31,14.64,35.36,21.55,14.64,35.36,14.64,26.3,5.6,35.35,14.65,14.65,21.55,14.65,35.35-5.6,26.31-14.65,35.36-21.55,14.64-35.35,14.64Z"/>
      </g>
      <g>
        <path class="cls-3" d="M230.35,6.22c0,13.81-5.6,26.31-14.64,35.36s-21.55,14.64-35.36,14.64-26.31,5.6-35.35,14.65-14.65,21.55-14.65,35.35-5.6,26.31-14.64,35.36-21.55,14.64-35.36,14.64-26.31-5.6-35.35-14.64-14.65-21.55-14.65-35.36,5.6-26.3,14.65-35.35,21.55-14.65,35.35-14.65,26.31-5.6,35.36-14.64,14.64-21.55,14.64-35.36,5.6-26.3,14.65-35.35,21.55-14.65,35.35-14.65,26.31,5.6,35.36,14.65,14.64,21.55,14.64,35.35Z"/>
        <path class="cls-3" d="M280.36,256.22c-13.81,0-26.31-5.6-35.36-14.64s-14.64-21.55-14.64-35.36-5.6-26.31-14.65-35.35-21.55-14.65-35.35-14.65-26.31-5.6-35.36-14.64-14.64-21.55-14.64-35.36,5.6-26.31,14.64-35.35,21.55-14.65,35.36-14.65,26.3,5.6,35.35,14.65,14.65,21.55,14.65,35.35,5.6,26.31,14.64,35.36,21.55,14.64,35.36,14.64,26.3,5.6,35.35,14.65,14.65,21.55,14.65,35.35-5.6,26.31-14.65,35.36-21.55,14.64-35.35,14.64Z"/>
      </g>
      <g>
        <path class="cls-3" d="M430.36,6.22c0,13.81-5.6,26.31-14.64,35.36s-21.55,14.64-35.36,14.64-26.31,5.6-35.35,14.65-14.65,21.55-14.65,35.35-5.6,26.31-14.64,35.36-21.55,14.64-35.36,14.64-26.31-5.6-35.35-14.64-14.65-21.55-14.65-35.36,5.6-26.3,14.65-35.35,21.55-14.65,35.35-14.65,26.31-5.6,35.36-14.64,14.64-21.55,14.64-35.36,5.6-26.3,14.65-35.35,21.55-14.65,35.35-14.65,26.31,5.6,35.36,14.65,14.64,21.55,14.64,35.35Z"/>
        <path class="cls-3" d="M480.36,256.22c-13.81,0-26.31-5.6-35.36-14.64s-14.64-21.55-14.64-35.36-5.6-26.31-14.65-35.35-21.55-14.65-35.35-14.65-26.31-5.6-35.36-14.64-14.64-21.55-14.64-35.36,5.6-26.31,14.64-35.35,21.55-14.65,35.36-14.65,26.3,5.6,35.35,14.65,14.65,21.55,14.65,35.35,5.6,26.31,14.64,35.36,21.55,14.64,35.36,14.64,26.3,5.6,35.35,14.65,14.65,21.55,14.65,35.35-5.6,26.31-14.65,35.36-21.55,14.64-35.35,14.64Z"/>
      </g>
      <g>
        <path class="cls-3" d="M630.36,6.22c0,13.81-5.6,26.31-14.64,35.36s-21.55,14.64-35.36,14.64-26.31,5.6-35.35,14.65-14.65,21.55-14.65,35.35-5.6,26.31-14.64,35.36-21.55,14.64-35.36,14.64-26.31-5.6-35.35-14.64-14.65-21.55-14.65-35.36,5.6-26.3,14.65-35.35,21.55-14.65,35.35-14.65,26.31-5.6,35.36-14.64,14.64-21.55,14.64-35.36,5.6-26.3,14.65-35.35,21.55-14.65,35.35-14.65,26.31,5.6,35.36,14.65,14.64,21.55,14.64,35.35Z"/>
        <path class="cls-3" d="M680.37,256.22c-13.81,0-26.31-5.6-35.36-14.64s-14.64-21.55-14.64-35.36-5.6-26.31-14.65-35.35-21.55-14.65-35.35-14.65-26.31-5.6-35.36-14.64-14.64-21.55-14.64-35.36,5.6-26.31,14.64-35.35,21.55-14.65,35.36-14.65,26.3,5.6,35.35,14.65,14.65,21.55,14.65,35.35,5.6,26.31,14.64,35.36,21.55,14.64,35.36,14.64,26.3,5.6,35.35,14.65,14.65,21.55,14.65,35.35-5.6,26.31-14.65,35.36-21.55,14.64-35.35,14.64Z"/>
      </g>
      <g>
        <path class="cls-3" d="M830.37,6.22c0,13.81-5.6,26.31-14.64,35.36s-21.55,14.64-35.36,14.64-26.31,5.6-35.35,14.65-14.65,21.55-14.65,35.35-5.6,26.31-14.64,35.36-21.55,14.64-35.36,14.64-26.31-5.6-35.35-14.64-14.65-21.55-14.65-35.36,5.6-26.3,14.65-35.35,21.55-14.65,35.35-14.65,26.31-5.6,35.36-14.64,14.64-21.55,14.64-35.36,5.6-26.3,14.65-35.35,21.55-14.65,35.35-14.65,26.31,5.6,35.36,14.65,14.64,21.55,14.64,35.35Z"/>
        <path class="cls-3" d="M880.37,256.22c-13.81,0-26.31-5.6-35.36-14.64s-14.64-21.55-14.64-35.36-5.6-26.31-14.65-35.35-21.55-14.65-35.35-14.65-26.31-5.6-35.36-14.64-14.64-21.55-14.64-35.36,5.6-26.31,14.64-35.35,21.55-14.65,35.36-14.65,26.3,5.6,35.35,14.65,14.65,21.55,14.65,35.35,5.6,26.31,14.64,35.36,21.55,14.64,35.36,14.64,26.3,5.6,35.35,14.65,14.65,21.55,14.65,35.35-5.6,26.31-14.65,35.36-21.55,14.64-35.35,14.64Z"/>
      </g>
      <g>
        <path class="cls-3" d="M1030.37,6.22c0,13.81-5.6,26.31-14.64,35.36s-21.55,14.64-35.36,14.64-26.31,5.6-35.35,14.65-14.65,21.55-14.65,35.35-5.6,26.31-14.64,35.36-21.55,14.64-35.36,14.64-26.31-5.6-35.35-14.64-14.65-21.55-14.65-35.36,5.6-26.3,14.65-35.35,21.55-14.65,35.35-14.65,26.31-5.6,35.36-14.64,14.64-21.55,14.64-35.36,5.6-26.3,14.65-35.35,21.55-14.65,35.35-14.65,26.31,5.6,35.36,14.65,14.64,21.55,14.64,35.35Z"/>
        <path class="cls-3" d="M1080.37,256.22c-13.81,0-26.31-5.6-35.36-14.64s-14.64-21.55-14.64-35.36-5.6-26.31-14.65-35.35-21.55-14.65-35.35-14.65-26.31-5.6-35.36-14.64-14.64-21.55-14.64-35.36,5.6-26.31,14.64-35.35,21.55-14.65,35.36-14.65,26.3,5.6,35.35,14.65,14.65,21.55,14.65,35.35,5.6,26.31,14.64,35.36,21.55,14.64,35.36,14.64,26.3,5.6,35.35,14.65,14.65,21.55,14.65,35.35-5.6,26.31-14.65,35.36-21.55,14.64-35.35,14.64Z"/>
      </g>
      <g>
        <path class="cls-3" d="M1230.37,6.22c0,13.81-5.6,26.31-14.64,35.36s-21.55,14.64-35.36,14.64-26.31,5.6-35.35,14.65-14.65,21.55-14.65,35.35-5.6,26.31-14.64,35.36-21.55,14.64-35.36,14.64-26.31-5.6-35.35-14.64-14.65-21.55-14.65-35.36,5.6-26.3,14.65-35.35,21.55-14.65,35.35-14.65,26.31-5.6,35.36-14.64,14.64-21.55,14.64-35.36,5.6-26.3,14.65-35.35,21.55-14.65,35.35-14.65,26.31,5.6,35.36,14.65,14.64,21.55,14.64,35.35Z"/>
        <path class="cls-3" d="M1280.38,256.22c-13.81,0-26.31-5.6-35.36-14.64s-14.64-21.55-14.64-35.36-5.6-26.31-14.65-35.35-21.55-14.65-35.35-14.65-26.31-5.6-35.36-14.64-14.64-21.55-14.64-35.36,5.6-26.31,14.64-35.35,21.55-14.65,35.36-14.65,26.3,5.6,35.35,14.65,14.65,21.55,14.65,35.35,5.6,26.31,14.64,35.36,21.55,14.64,35.36,14.64,26.3,5.6,35.35,14.65,14.65,21.55,14.65,35.35-5.6,26.31-14.65,35.36-21.55,14.64-35.35,14.64Z"/>
      </g>
      <g>
        <path class="cls-3" d="M-169.65,206.22c0,13.81-5.6,26.31-14.64,35.36s-21.55,14.64-35.36,14.64-26.31,5.6-35.35,14.65-14.65,21.55-14.65,35.35-5.6,26.31-14.64,35.36-21.55,14.64-35.36,14.64-26.31-5.6-35.35-14.64-14.65-21.55-14.65-35.36,5.6-26.3,14.65-35.35,21.55-14.65,35.35-14.65,26.31-5.6,35.36-14.64,14.64-21.55,14.64-35.36,5.6-26.3,14.65-35.35,21.55-14.65,35.35-14.65,26.31,5.6,35.36,14.65,14.64,21.55,14.64,35.35Z"/>
        <path class="cls-3" d="M-119.65,456.22c-13.81,0-26.31-5.6-35.36-14.64s-14.64-21.55-14.64-35.36-5.6-26.31-14.65-35.35-21.55-14.65-35.35-14.65-26.31-5.6-35.36-14.64-14.64-21.55-14.64-35.36,5.6-26.31,14.64-35.35,21.55-14.65,35.36-14.65,26.3,5.6,35.35,14.65,14.65,21.55,14.65,35.35,5.6,26.31,14.64,35.36,21.55,14.64,35.36,14.64,26.3,5.6,35.35,14.65,14.65,21.55,14.65,35.35-5.6,26.31-14.65,35.36-21.55,14.64-35.35,14.64Z"/>
      </g>
      <g>
        <path class="cls-3" d="M30.35,206.22c0,13.81-5.6,26.31-14.64,35.36s-21.55,14.64-35.36,14.64-26.31,5.6-35.35,14.65-14.65,21.55-14.65,35.35-5.6,26.31-14.64,35.36-21.55,14.64-35.36,14.64-26.31-5.6-35.35-14.64-14.65-21.55-14.65-35.36,5.6-26.3,14.65-35.35,21.55-14.65,35.35-14.65,26.31-5.6,35.36-14.64,14.64-21.55,14.64-35.36,5.6-26.3,14.65-35.35,21.55-14.65,35.35-14.65,26.31,5.6,35.36,14.65,14.64,21.55,14.64,35.35Z"/>
        <path class="cls-3" d="M80.35,456.22c-13.81,0-26.31-5.6-35.36-14.64s-14.64-21.55-14.64-35.36-5.6-26.31-14.65-35.35-21.55-14.65-35.35-14.65-26.31-5.6-35.36-14.64-14.64-21.55-14.64-35.36,5.6-26.31,14.64-35.35,21.55-14.65,35.36-14.65,26.3,5.6,35.35,14.65,14.65,21.55,14.65,35.35,5.6,26.31,14.64,35.36,21.55,14.64,35.36,14.64,26.3,5.6,35.35,14.65,14.65,21.55,14.65,35.35-5.6,26.31-14.65,35.36-21.55,14.64-35.35,14.64Z"/>
      </g>
      <g>
        <path class="cls-3" d="M230.35,206.22c0,13.81-5.6,26.31-14.64,35.36s-21.55,14.64-35.36,14.64-26.31,5.6-35.35,14.65-14.65,21.55-14.65,35.35-5.6,26.31-14.64,35.36-21.55,14.64-35.36,14.64-26.31-5.6-35.35-14.64-14.65-21.55-14.65-35.36,5.6-26.3,14.65-35.35,21.55-14.65,35.35-14.65,26.31-5.6,35.36-14.64,14.64-21.55,14.64-35.36,5.6-26.3,14.65-35.35,21.55-14.65,35.35-14.65,26.31,5.6,35.36,14.65,14.64,21.55,14.64,35.35Z"/>
        <path class="cls-3" d="M280.36,456.22c-13.81,0-26.31-5.6-35.36-14.64s-14.64-21.55-14.64-35.36-5.6-26.31-14.65-35.35-21.55-14.65-35.35-14.65-26.31-5.6-35.36-14.64-14.64-21.55-14.64-35.36,5.6-26.31,14.64-35.35,21.55-14.65,35.36-14.65,26.3,5.6,35.35,14.65,14.65,21.55,14.65,35.35,5.6,26.31,14.64,35.36,21.55,14.64,35.36,14.64,26.3,5.6,35.35,14.65,14.65,21.55,14.65,35.35-5.6,26.31-14.65,35.36-21.55,14.64-35.35,14.64Z"/>
      </g>
      <g>
        <path class="cls-3" d="M430.36,206.22c0,13.81-5.6,26.31-14.64,35.36s-21.55,14.64-35.36,14.64-26.31,5.6-35.35,14.65-14.65,21.55-14.65,35.35-5.6,26.31-14.64,35.36-21.55,14.64-35.36,14.64-26.31-5.6-35.35-14.64-14.65-21.55-14.65-35.36,5.6-26.3,14.65-35.35,21.55-14.65,35.35-14.65,26.31-5.6,35.36-14.64,14.64-21.55,14.64-35.36,5.6-26.3,14.65-35.35,21.55-14.65,35.35-14.65,26.31,5.6,35.36,14.65,14.64,21.55,14.64,35.35Z"/>
        <path class="cls-3" d="M480.36,456.22c-13.81,0-26.31-5.6-35.36-14.64s-14.64-21.55-14.64-35.36-5.6-26.31-14.65-35.35-21.55-14.65-35.35-14.65-26.31-5.6-35.36-14.64-14.64-21.55-14.64-35.36,5.6-26.31,14.64-35.35,21.55-14.65,35.36-14.65,26.3,5.6,35.35,14.65,14.65,21.55,14.65,35.35,5.6,26.31,14.64,35.36,21.55,14.64,35.36,14.64,26.3,5.6,35.35,14.65,14.65,21.55,14.65,35.35-5.6,26.31-14.65,35.36-21.55,14.64-35.35,14.64Z"/>
      </g>
      <g>
        <path class="cls-3" d="M630.36,206.22c0,13.81-5.6,26.31-14.64,35.36s-21.55,14.64-35.36,14.64-26.31,5.6-35.35,14.65-14.65,21.55-14.65,35.35-5.6,26.31-14.64,35.36-21.55,14.64-35.36,14.64-26.31-5.6-35.35-14.64-14.65-21.55-14.65-35.36,5.6-26.3,14.65-35.35,21.55-14.65,35.35-14.65,26.31-5.6,35.36-14.64,14.64-21.55,14.64-35.36,5.6-26.3,14.65-35.35,21.55-14.65,35.35-14.65,26.31,5.6,35.36,14.65,14.64,21.55,14.64,35.35Z"/>
        <path class="cls-3" d="M680.37,456.22c-13.81,0-26.31-5.6-35.36-14.64s-14.64-21.55-14.64-35.36-5.6-26.31-14.65-35.35-21.55-14.65-35.35-14.65-26.31-5.6-35.36-14.64-14.64-21.55-14.64-35.36,5.6-26.31,14.64-35.35,21.55-14.65,35.36-14.65,26.3,5.6,35.35,14.65,14.65,21.55,14.65,35.35,5.6,26.31,14.64,35.36,21.55,14.64,35.36,14.64,26.3,5.6,35.35,14.65,14.65,21.55,14.65,35.35-5.6,26.31-14.65,35.36-21.55,14.64-35.35,14.64Z"/>
      </g>
      <g>
        <path class="cls-3" d="M830.37,206.22c0,13.81-5.6,26.31-14.64,35.36s-21.55,14.64-35.36,14.64-26.31,5.6-35.35,14.65-14.65,21.55-14.65,35.35-5.6,26.31-14.64,35.36-21.55,14.64-35.36,14.64-26.31-5.6-35.35-14.64-14.65-21.55-14.65-35.36,5.6-26.3,14.65-35.35,21.55-14.65,35.35-14.65,26.31-5.6,35.36-14.64,14.64-21.55,14.64-35.36,5.6-26.3,14.65-35.35,21.55-14.65,35.35-14.65,26.31,5.6,35.36,14.65,14.64,21.55,14.64,35.35Z"/>
        <path class="cls-3" d="M880.37,456.22c-13.81,0-26.31-5.6-35.36-14.64s-14.64-21.55-14.64-35.36-5.6-26.31-14.65-35.35-21.55-14.65-35.35-14.65-26.31-5.6-35.36-14.64-14.64-21.55-14.64-35.36,5.6-26.31,14.64-35.35,21.55-14.65,35.36-14.65,26.3,5.6,35.35,14.65,14.65,21.55,14.65,35.35,5.6,26.31,14.64,35.36,21.55,14.64,35.36,14.64,26.3,5.6,35.35,14.65,14.65,21.55,14.65,35.35-5.6,26.31-14.65,35.36-21.55,14.64-35.35,14.64Z"/>
      </g>
      <g>
        <path class="cls-3" d="M1030.37,206.22c0,13.81-5.6,26.31-14.64,35.36s-21.55,14.64-35.36,14.64-26.31,5.6-35.35,14.65-14.65,21.55-14.65,35.35-5.6,26.31-14.64,35.36-21.55,14.64-35.36,14.64-26.31-5.6-35.35-14.64-14.65-21.55-14.65-35.36,5.6-26.3,14.65-35.35,21.55-14.65,35.35-14.65,26.31-5.6,35.36-14.64,14.64-21.55,14.64-35.36,5.6-26.3,14.65-35.35,21.55-14.65,35.35-14.65,26.31,5.6,35.36,14.65,14.64,21.55,14.64,35.35Z"/>
        <path class="cls-3" d="M1080.37,456.22c-13.81,0-26.31-5.6-35.36-14.64s-14.64-21.55-14.64-35.36-5.6-26.31-14.65-35.35-21.55-14.65-35.35-14.65-26.31-5.6-35.36-14.64-14.64-21.55-14.64-35.36,5.6-26.31,14.64-35.35,21.55-14.65,35.36-14.65,26.3,5.6,35.35,14.65,14.65,21.55,14.65,35.35,5.6,26.31,14.64,35.36,21.55,14.64,35.36,14.64,26.3,5.6,35.35,14.65,14.65,21.55,14.65,35.35-5.6,26.31-14.65,35.36-21.55,14.64-35.35,14.64Z"/>
      </g>
      <g>
        <path class="cls-3" d="M1230.37,206.22c0,13.81-5.6,26.31-14.64,35.36s-21.55,14.64-35.36,14.64-26.31,5.6-35.35,14.65-14.65,21.55-14.65,35.35-5.6,26.31-14.64,35.36-21.55,14.64-35.36,14.64-26.31-5.6-35.35-14.64-14.65-21.55-14.65-35.36,5.6-26.3,14.65-35.35,21.55-14.65,35.35-14.65,26.31-5.6,35.36-14.64,14.64-21.55,14.64-35.36,5.6-26.3,14.65-35.35,21.55-14.65,35.35-14.65,26.31,5.6,35.36,14.65,14.64,21.55,14.64,35.35Z"/>
        <path class="cls-3" d="M1280.38,456.22c-13.81,0-26.31-5.6-35.36-14.64s-14.64-21.55-14.64-35.36-5.6-26.31-14.65-35.35-21.55-14.65-35.35-14.65-26.31-5.6-35.36-14.64-14.64-21.55-14.64-35.36,5.6-26.31,14.64-35.35,21.55-14.65,35.36-14.65,26.3,5.6,35.35,14.65,14.65,21.55,14.65,35.35,5.6,26.31,14.64,35.36,21.55,14.64,35.36,14.64,26.3,5.6,35.35,14.65,14.65,21.55,14.65,35.35-5.6,26.31-14.65,35.36-21.55,14.64-35.35,14.64Z"/>
      </g>
      <g>
        <path class="cls-3" d="M-169.65,406.22c0,13.81-5.6,26.31-14.64,35.36s-21.55,14.64-35.36,14.64-26.31,5.6-35.35,14.65-14.65,21.55-14.65,35.35-5.6,26.31-14.64,35.36-21.55,14.64-35.36,14.64-26.31-5.6-35.35-14.64-14.65-21.55-14.65-35.36,5.6-26.3,14.65-35.35,21.55-14.65,35.35-14.65,26.31-5.6,35.36-14.64,14.64-21.55,14.64-35.36,5.6-26.3,14.65-35.35,21.55-14.65,35.35-14.65,26.31,5.6,35.36,14.65,14.64,21.55,14.64,35.35Z"/>
        <path class="cls-3" d="M-119.65,656.22c-13.81,0-26.31-5.6-35.36-14.64s-14.64-21.55-14.64-35.36-5.6-26.31-14.65-35.35-21.55-14.65-35.35-14.65-26.31-5.6-35.36-14.64-14.64-21.55-14.64-35.36,5.6-26.31,14.64-35.35,21.55-14.65,35.36-14.65,26.3,5.6,35.35,14.65,14.65,21.55,14.65,35.35,5.6,26.31,14.64,35.36,21.55,14.64,35.36,14.64,26.3,5.6,35.35,14.65,14.65,21.55,14.65,35.35-5.6,26.31-14.65,35.36-21.55,14.64-35.35,14.64Z"/>
      </g>
      <g>
        <path class="cls-3" d="M30.35,406.22c0,13.81-5.6,26.31-14.64,35.36s-21.55,14.64-35.36,14.64-26.31,5.6-35.35,14.65-14.65,21.55-14.65,35.35-5.6,26.31-14.64,35.36-21.55,14.64-35.36,14.64-26.31-5.6-35.35-14.64-14.65-21.55-14.65-35.36,5.6-26.3,14.65-35.35,21.55-14.65,35.35-14.65,26.31-5.6,35.36-14.64,14.64-21.55,14.64-35.36,5.6-26.3,14.65-35.35,21.55-14.65,35.35-14.65,26.31,5.6,35.36,14.65,14.64,21.55,14.64,35.35Z"/>
        <path class="cls-3" d="M80.35,656.22c-13.81,0-26.31-5.6-35.36-14.64s-14.64-21.55-14.64-35.36-5.6-26.31-14.65-35.35-21.55-14.65-35.35-14.65-26.31-5.6-35.36-14.64-14.64-21.55-14.64-35.36,5.6-26.31,14.64-35.35,21.55-14.65,35.36-14.65,26.3,5.6,35.35,14.65,14.65,21.55,14.65,35.35,5.6,26.31,14.64,35.36,21.55,14.64,35.36,14.64,26.3,5.6,35.35,14.65,14.65,21.55,14.65,35.35-5.6,26.31-14.65,35.36-21.55,14.64-35.35,14.64Z"/>
      </g>
      <g>
        <path class="cls-3" d="M230.35,406.22c0,13.81-5.6,26.31-14.64,35.36s-21.55,14.64-35.36,14.64-26.31,5.6-35.35,14.65-14.65,21.55-14.65,35.35-5.6,26.31-14.64,35.36-21.55,14.64-35.36,14.64-26.31-5.6-35.35-14.64-14.65-21.55-14.65-35.36,5.6-26.3,14.65-35.35,21.55-14.65,35.35-14.65,26.31-5.6,35.36-14.64,14.64-21.55,14.64-35.36,5.6-26.3,14.65-35.35,21.55-14.65,35.35-14.65,26.31,5.6,35.36,14.65,14.64,21.55,14.64,35.35Z"/>
        <path class="cls-3" d="M280.36,656.22c-13.81,0-26.31-5.6-35.36-14.64s-14.64-21.55-14.64-35.36-5.6-26.31-14.65-35.35-21.55-14.65-35.35-14.65-26.31-5.6-35.36-14.64-14.64-21.55-14.64-35.36,5.6-26.31,14.64-35.35,21.55-14.65,35.36-14.65,26.3,5.6,35.35,14.65,14.65,21.55,14.65,35.35,5.6,26.31,14.64,35.36,21.55,14.64,35.36,14.64,26.3,5.6,35.35,14.65,14.65,21.55,14.65,35.35-5.6,26.31-14.65,35.36-21.55,14.64-35.35,14.64Z"/>
      </g>
      <g>
        <path class="cls-3" d="M430.36,406.22c0,13.81-5.6,26.31-14.64,35.36s-21.55,14.64-35.36,14.64-26.31,5.6-35.35,14.65-14.65,21.55-14.65,35.35-5.6,26.31-14.64,35.36-21.55,14.64-35.36,14.64-26.31-5.6-35.35-14.64-14.65-21.55-14.65-35.36,5.6-26.3,14.65-35.35,21.55-14.65,35.35-14.65,26.31-5.6,35.36-14.64,14.64-21.55,14.64-35.36,5.6-26.3,14.65-35.35,21.55-14.65,35.35-14.65,26.31,5.6,35.36,14.65,14.64,21.55,14.64,35.35Z"/>
        <path class="cls-3" d="M480.36,656.22c-13.81,0-26.31-5.6-35.36-14.64s-14.64-21.55-14.64-35.36-5.6-26.31-14.65-35.35-21.55-14.65-35.35-14.65-26.31-5.6-35.36-14.64-14.64-21.55-14.64-35.36,5.6-26.31,14.64-35.35,21.55-14.65,35.36-14.65,26.3,5.6,35.35,14.65,14.65,21.55,14.65,35.35,5.6,26.31,14.64,35.36,21.55,14.64,35.36,14.64,26.3,5.6,35.35,14.65,14.65,21.55,14.65,35.35-5.6,26.31-14.65,35.36-21.55,14.64-35.35,14.64Z"/>
      </g>
      <g>
        <path class="cls-3" d="M630.36,406.22c0,13.81-5.6,26.31-14.64,35.36s-21.55,14.64-35.36,14.64-26.31,5.6-35.35,14.65-14.65,21.55-14.65,35.35-5.6,26.31-14.64,35.36-21.55,14.64-35.36,14.64-26.31-5.6-35.35-14.64-14.65-21.55-14.65-35.36,5.6-26.3,14.65-35.35,21.55-14.65,35.35-14.65,26.31-5.6,35.36-14.64,14.64-21.55,14.64-35.36,5.6-26.3,14.65-35.35,21.55-14.65,35.35-14.65,26.31,5.6,35.36,14.65,14.64,21.55,14.64,35.35Z"/>
        <path class="cls-3" d="M680.37,656.22c-13.81,0-26.31-5.6-35.36-14.64s-14.64-21.55-14.64-35.36-5.6-26.31-14.65-35.35-21.55-14.65-35.35-14.65-26.31-5.6-35.36-14.64-14.64-21.55-14.64-35.36,5.6-26.31,14.64-35.35,21.55-14.65,35.36-14.65,26.3,5.6,35.35,14.65,14.65,21.55,14.65,35.35,5.6,26.31,14.64,35.36,21.55,14.64,35.36,14.64,26.3,5.6,35.35,14.65,14.65,21.55,14.65,35.35-5.6,26.31-14.65,35.36-21.55,14.64-35.35,14.64Z"/>
      </g>
      <g>
        <path class="cls-3" d="M830.37,406.22c0,13.81-5.6,26.31-14.64,35.36s-21.55,14.64-35.36,14.64-26.31,5.6-35.35,14.65-14.65,21.55-14.65,35.35-5.6,26.31-14.64,35.36-21.55,14.64-35.36,14.64-26.31-5.6-35.35-14.64-14.65-21.55-14.65-35.36,5.6-26.3,14.65-35.35,21.55-14.65,35.35-14.65,26.31-5.6,35.36-14.64,14.64-21.55,14.64-35.36,5.6-26.3,14.65-35.35,21.55-14.65,35.35-14.65,26.31,5.6,35.36,14.65,14.64,21.55,14.64,35.35Z"/>
        <path class="cls-3" d="M880.37,656.22c-13.81,0-26.31-5.6-35.36-14.64s-14.64-21.55-14.64-35.36-5.6-26.31-14.65-35.35-21.55-14.65-35.35-14.65-26.31-5.6-35.36-14.64-14.64-21.55-14.64-35.36,5.6-26.31,14.64-35.35,21.55-14.65,35.36-14.65,26.3,5.6,35.35,14.65,14.65,21.55,14.65,35.35,5.6,26.31,14.64,35.36,21.55,14.64,35.36,14.64,26.3,5.6,35.35,14.65,14.65,21.55,14.65,35.35-5.6,26.31-14.65,35.36-21.55,14.64-35.35,14.64Z"/>
      </g>
      <g>
        <path class="cls-3" d="M1030.37,406.22c0,13.81-5.6,26.31-14.64,35.36s-21.55,14.64-35.36,14.64-26.31,5.6-35.35,14.65-14.65,21.55-14.65,35.35-5.6,26.31-14.64,35.36-21.55,14.64-35.36,14.64-26.31-5.6-35.35-14.64-14.65-21.55-14.65-35.36,5.6-26.3,14.65-35.35,21.55-14.65,35.35-14.65,26.31-5.6,35.36-14.64,14.64-21.55,14.64-35.36,5.6-26.3,14.65-35.35,21.55-14.65,35.35-14.65,26.31,5.6,35.36,14.65,14.64,21.55,14.64,35.35Z"/>
        <path class="cls-3" d="M1080.37,656.22c-13.81,0-26.31-5.6-35.36-14.64s-14.64-21.55-14.64-35.36-5.6-26.31-14.65-35.35-21.55-14.65-35.35-14.65-26.31-5.6-35.36-14.64-14.64-21.55-14.64-35.36,5.6-26.31,14.64-35.35,21.55-14.65,35.36-14.65,26.3,5.6,35.35,14.65,14.65,21.55,14.65,35.35,5.6,26.31,14.64,35.36,21.55,14.64,35.36,14.64,26.3,5.6,35.35,14.65,14.65,21.55,14.65,35.35-5.6,26.31-14.65,35.36-21.55,14.64-35.35,14.64Z"/>
      </g>
      <g>
        <path class="cls-3" d="M1230.37,406.22c0,13.81-5.6,26.31-14.64,35.36s-21.55,14.64-35.36,14.64-26.31,5.6-35.35,14.65-14.65,21.55-14.65,35.35-5.6,26.31-14.64,35.36-21.55,14.64-35.36,14.64-26.31-5.6-35.35-14.64-14.65-21.55-14.65-35.36,5.6-26.3,14.65-35.35,21.55-14.65,35.35-14.65,26.31-5.6,35.36-14.64,14.64-21.55,14.64-35.36,5.6-26.3,14.65-35.35,21.55-14.65,35.35-14.65,26.31,5.6,35.36,14.65,14.64,21.55,14.64,35.35Z"/>
        <path class="cls-3" d="M1280.38,656.22c-13.81,0-26.31-5.6-35.36-14.64s-14.64-21.55-14.64-35.36-5.6-26.31-14.65-35.35-21.55-14.65-35.35-14.65-26.31-5.6-35.36-14.64-14.64-21.55-14.64-35.36,5.6-26.31,14.64-35.35,21.55-14.65,35.36-14.65,26.3,5.6,35.35,14.65,14.65,21.55,14.65,35.35,5.6,26.31,14.64,35.36,21.55,14.64,35.36,14.64,26.3,5.6,35.35,14.65,14.65,21.55,14.65,35.35-5.6,26.31-14.65,35.36-21.55,14.64-35.35,14.64Z"/>
      </g>
      <g>
        <path class="cls-3" d="M-169.65,606.22c0,13.81-5.6,26.31-14.64,35.36s-21.55,14.64-35.36,14.64-26.31,5.6-35.35,14.65-14.65,21.55-14.65,35.35-5.6,26.31-14.64,35.36-21.55,14.64-35.36,14.64-26.31-5.6-35.35-14.64-14.65-21.55-14.65-35.36,5.6-26.3,14.65-35.35,21.55-14.65,35.35-14.65,26.31-5.6,35.36-14.64,14.64-21.55,14.64-35.36,5.6-26.3,14.65-35.35,21.55-14.65,35.35-14.65,26.31,5.6,35.36,14.65,14.64,21.55,14.64,35.35Z"/>
        <path class="cls-3" d="M-119.65,856.22c-13.81,0-26.31-5.6-35.36-14.64s-14.64-21.55-14.64-35.36-5.6-26.31-14.65-35.35-21.55-14.65-35.35-14.65-26.31-5.6-35.36-14.64-14.64-21.55-14.64-35.36,5.6-26.31,14.64-35.35,21.55-14.65,35.36-14.65,26.3,5.6,35.35,14.65,14.65,21.55,14.65,35.35,5.6,26.31,14.64,35.36,21.55,14.64,35.36,14.64,26.3,5.6,35.35,14.65,14.65,21.55,14.65,35.35-5.6,26.31-14.65,35.36-21.55,14.64-35.35,14.64Z"/>
      </g>
      <g>
        <path class="cls-3" d="M30.35,606.22c0,13.81-5.6,26.31-14.64,35.36s-21.55,14.64-35.36,14.64-26.31,5.6-35.35,14.65-14.65,21.55-14.65,35.35-5.6,26.31-14.64,35.36-21.55,14.64-35.36,14.64-26.31-5.6-35.35-14.64-14.65-21.55-14.65-35.36,5.6-26.3,14.65-35.35,21.55-14.65,35.35-14.65,26.31-5.6,35.36-14.64,14.64-21.55,14.64-35.36,5.6-26.3,14.65-35.35,21.55-14.65,35.35-14.65,26.31,5.6,35.36,14.65,14.64,21.55,14.64,35.35Z"/>
        <path class="cls-3" d="M80.35,856.22c-13.81,0-26.31-5.6-35.36-14.64s-14.64-21.55-14.64-35.36-5.6-26.31-14.65-35.35-21.55-14.65-35.35-14.65-26.31-5.6-35.36-14.64-14.64-21.55-14.64-35.36,5.6-26.31,14.64-35.35,21.55-14.65,35.36-14.65,26.3,5.6,35.35,14.65,14.65,21.55,14.65,35.35,5.6,26.31,14.64,35.36,21.55,14.64,35.36,14.64,26.3,5.6,35.35,14.65,14.65,21.55,14.65,35.35-5.6,26.31-14.65,35.36-21.55,14.64-35.35,14.64Z"/>
      </g>
      <g>
        <path class="cls-3" d="M230.35,606.22c0,13.81-5.6,26.31-14.64,35.36s-21.55,14.64-35.36,14.64-26.31,5.6-35.35,14.65-14.65,21.55-14.65,35.35-5.6,26.31-14.64,35.36-21.55,14.64-35.36,14.64-26.31-5.6-35.35-14.64-14.65-21.55-14.65-35.36,5.6-26.3,14.65-35.35,21.55-14.65,35.35-14.65,26.31-5.6,35.36-14.64,14.64-21.55,14.64-35.36,5.6-26.3,14.65-35.35,21.55-14.65,35.35-14.65,26.31,5.6,35.36,14.65,14.64,21.55,14.64,35.35Z"/>
        <path class="cls-3" d="M280.36,856.22c-13.81,0-26.31-5.6-35.36-14.64s-14.64-21.55-14.64-35.36-5.6-26.31-14.65-35.35-21.55-14.65-35.35-14.65-26.31-5.6-35.36-14.64-14.64-21.55-14.64-35.36,5.6-26.31,14.64-35.35,21.55-14.65,35.36-14.65,26.3,5.6,35.35,14.65,14.65,21.55,14.65,35.35,5.6,26.31,14.64,35.36,21.55,14.64,35.36,14.64,26.3,5.6,35.35,14.65,14.65,21.55,14.65,35.35-5.6,26.31-14.65,35.36-21.55,14.64-35.35,14.64Z"/>
      </g>
      <g>
        <path class="cls-3" d="M430.36,606.22c0,13.81-5.6,26.31-14.64,35.36s-21.55,14.64-35.36,14.64-26.31,5.6-35.35,14.65-14.65,21.55-14.65,35.35-5.6,26.31-14.64,35.36-21.55,14.64-35.36,14.64-26.31-5.6-35.35-14.64-14.65-21.55-14.65-35.36,5.6-26.3,14.65-35.35,21.55-14.65,35.35-14.65,26.31-5.6,35.36-14.64,14.64-21.55,14.64-35.36,5.6-26.3,14.65-35.35,21.55-14.65,35.35-14.65,26.31,5.6,35.36,14.65,14.64,21.55,14.64,35.35Z"/>
        <path class="cls-3" d="M480.36,856.22c-13.81,0-26.31-5.6-35.36-14.64s-14.64-21.55-14.64-35.36-5.6-26.31-14.65-35.35-21.55-14.65-35.35-14.65-26.31-5.6-35.36-14.64-14.64-21.55-14.64-35.36,5.6-26.31,14.64-35.35,21.55-14.65,35.36-14.65,26.3,5.6,35.35,14.65,14.65,21.55,14.65,35.35,5.6,26.31,14.64,35.36,21.55,14.64,35.36,14.64,26.3,5.6,35.35,14.65,14.65,21.55,14.65,35.35-5.6,26.31-14.65,35.36-21.55,14.64-35.35,14.64Z"/>
      </g>
      <g>
        <path class="cls-3" d="M630.36,606.22c0,13.81-5.6,26.31-14.64,35.36s-21.55,14.64-35.36,14.64-26.31,5.6-35.35,14.65-14.65,21.55-14.65,35.35-5.6,26.31-14.64,35.36-21.55,14.64-35.36,14.64-26.31-5.6-35.35-14.64-14.65-21.55-14.65-35.36,5.6-26.3,14.65-35.35,21.55-14.65,35.35-14.65,26.31-5.6,35.36-14.64,14.64-21.55,14.64-35.36,5.6-26.3,14.65-35.35,21.55-14.65,35.35-14.65,26.31,5.6,35.36,14.65,14.64,21.55,14.64,35.35Z"/>
        <path class="cls-3" d="M680.37,856.22c-13.81,0-26.31-5.6-35.36-14.64s-14.64-21.55-14.64-35.36-5.6-26.31-14.65-35.35-21.55-14.65-35.35-14.65-26.31-5.6-35.36-14.64-14.64-21.55-14.64-35.36,5.6-26.31,14.64-35.35,21.55-14.65,35.36-14.65,26.3,5.6,35.35,14.65,14.65,21.55,14.65,35.35,5.6,26.31,14.64,35.36,21.55,14.64,35.36,14.64,26.3,5.6,35.35,14.65,14.65,21.55,14.65,35.35-5.6,26.31-14.65,35.36-21.55,14.64-35.35,14.64Z"/>
      </g>
      <g>
        <path class="cls-3" d="M830.37,606.22c0,13.81-5.6,26.31-14.64,35.36s-21.55,14.64-35.36,14.64-26.31,5.6-35.35,14.65-14.65,21.55-14.65,35.35-5.6,26.31-14.64,35.36-21.55,14.64-35.36,14.64-26.31-5.6-35.35-14.64-14.65-21.55-14.65-35.36,5.6-26.3,14.65-35.35,21.55-14.65,35.35-14.65,26.31-5.6,35.36-14.64,14.64-21.55,14.64-35.36,5.6-26.3,14.65-35.35,21.55-14.65,35.35-14.65,26.31,5.6,35.36,14.65,14.64,21.55,14.64,35.35Z"/>
        <path class="cls-3" d="M880.37,856.22c-13.81,0-26.31-5.6-35.36-14.64s-14.64-21.55-14.64-35.36-5.6-26.31-14.65-35.35-21.55-14.65-35.35-14.65-26.31-5.6-35.36-14.64-14.64-21.55-14.64-35.36,5.6-26.31,14.64-35.35,21.55-14.65,35.36-14.65,26.3,5.6,35.35,14.65,14.65,21.55,14.65,35.35,5.6,26.31,14.64,35.36,21.55,14.64,35.36,14.64,26.3,5.6,35.35,14.65,14.65,21.55,14.65,35.35-5.6,26.31-14.65,35.36-21.55,14.64-35.35,14.64Z"/>
      </g>
      <g>
        <path class="cls-3" d="M1030.37,606.22c0,13.81-5.6,26.31-14.64,35.36s-21.55,14.64-35.36,14.64-26.31,5.6-35.35,14.65-14.65,21.55-14.65,35.35-5.6,26.31-14.64,35.36-21.55,14.64-35.36,14.64-26.31-5.6-35.35-14.64-14.65-21.55-14.65-35.36,5.6-26.3,14.65-35.35,21.55-14.65,35.35-14.65,26.31-5.6,35.36-14.64,14.64-21.55,14.64-35.36,5.6-26.3,14.65-35.35,21.55-14.65,35.35-14.65,26.31,5.6,35.36,14.65,14.64,21.55,14.64,35.35Z"/>
        <path class="cls-3" d="M1080.37,856.22c-13.81,0-26.31-5.6-35.36-14.64s-14.64-21.55-14.64-35.36-5.6-26.31-14.65-35.35-21.55-14.65-35.35-14.65-26.31-5.6-35.36-14.64-14.64-21.55-14.64-35.36,5.6-26.31,14.64-35.35,21.55-14.65,35.36-14.65,26.3,5.6,35.35,14.65,14.65,21.55,14.65,35.35,5.6,26.31,14.64,35.36,21.55,14.64,35.36,14.64,26.3,5.6,35.35,14.65,14.65,21.55,14.65,35.35-5.6,26.31-14.65,35.36-21.55,14.64-35.35,14.64Z"/>
      </g>
      <g>
        <path class="cls-3" d="M1230.37,606.22c0,13.81-5.6,26.31-14.64,35.36s-21.55,14.64-35.36,14.64-26.31,5.6-35.35,14.65-14.65,21.55-14.65,35.35-5.6,26.31-14.64,35.36-21.55,14.64-35.36,14.64-26.31-5.6-35.35-14.64-14.65-21.55-14.65-35.36,5.6-26.3,14.65-35.35,21.55-14.65,35.35-14.65,26.31-5.6,35.36-14.64,14.64-21.55,14.64-35.36,5.6-26.3,14.65-35.35,21.55-14.65,35.35-14.65,26.31,5.6,35.36,14.65,14.64,21.55,14.64,35.35Z"/>
        <path class="cls-3" d="M1280.38,856.22c-13.81,0-26.31-5.6-35.36-14.64s-14.64-21.55-14.64-35.36-5.6-26.31-14.65-35.35-21.55-14.65-35.35-14.65-26.31-5.6-35.36-14.64-14.64-21.55-14.64-35.36,5.6-26.31,14.64-35.35,21.55-14.65,35.36-14.65,26.3,5.6,35.35,14.65,14.65,21.55,14.65,35.35,5.6,26.31,14.64,35.36,21.55,14.64,35.36,14.64,26.3,5.6,35.35,14.65,14.65,21.55,14.65,35.35-5.6,26.31-14.65,35.36-21.55,14.64-35.35,14.64Z"/>
      </g>
    </g>
  </g>
</svg>